<svg width="1112" height="278" xmlns="http://www.w3.org/2000/svg" xmlns:xlink="http://www.w3.org/1999/xlink" overflow="hidden"><g transform="translate(-42 -360)"><path d="M310.5 405.501C310.5 381.2 330.2 361.5 354.501 361.5L1108.5 361.5C1132.8 361.5 1152.5 381.2 1152.5 405.501L1152.5 581.499C1152.5 605.8 1132.8 625.5 1108.5 625.5L354.501 625.5C330.2 625.5 310.5 605.8 310.5 581.499Z" stroke="#172C51" stroke-miterlimit="8" stroke-dasharray="1 1" fill="#FFFFFF" fill-rule="evenodd"/><text fill="#FFFFFF" font-family="Arial,Arial_MSFontService,sans-serif" font-weight="700" font-size="24" transform="translate(586.106 502)">Self</text><text fill="#FFFFFF" font-family="Arial,Arial_MSFontService,sans-serif" font-weight="700" font-size="24" transform="translate(630.106 502)">-</text><text fill="#FFFFFF" font-family="Arial,Arial_MSFontService,sans-serif" font-weight="700" font-size="24" transform="translate(638.106 502)">attention Mechanism</text><path d="M972.5 456.334C972.5 446.484 980.484 438.5 990.334 438.5L1061.67 438.5C1071.52 438.5 1079.5 446.484 1079.5 456.334L1079.5 584.666C1079.5 594.516 1071.52 602.5 1061.67 602.5L990.334 602.5C980.484 602.5 972.5 594.516 972.5 584.666Z" stroke="#172C51" stroke-miterlimit="8" stroke-dasharray="4 3 1 3" stroke-opacity="0.701961" fill="#C6E9AF" fill-rule="evenodd" fill-opacity="0.298039"/><path d="M633.5 465.834C633.5 450.738 645.738 438.5 660.834 438.5L891.166 438.5C906.262 438.5 918.5 450.738 918.5 465.834L918.5 575.166C918.5 590.262 906.262 602.5 891.166 602.5L660.834 602.5C645.738 602.5 633.5 590.262 633.5 575.166Z" stroke="#172C51" stroke-miterlimit="8" stroke-dasharray="4 3 1 3" stroke-opacity="0.701961" fill="#FFCCAA" fill-rule="evenodd" fill-opacity="0.25098"/><path d="M463.5 456.334C463.5 446.484 471.484 438.5 481.334 438.5L552.666 438.5C562.516 438.5 570.5 446.484 570.5 456.334L570.5 582.666C570.5 592.516 562.516 600.5 552.666 600.5L481.334 600.5C471.484 600.5 463.5 592.516 463.5 582.666Z" stroke="#172C51" stroke-miterlimit="8" stroke-dasharray="4 3 1 3" stroke-opacity="0.701961" fill="#AFDDE9" fill-rule="evenodd" fill-opacity="0.301961"/><rect x="403.5" y="526.5" width="46" height="8" stroke="#000000" stroke-miterlimit="8" fill="#DBDBE3" fill-opacity="0.2"/><text font-family="Arial,Arial_MSFontService,sans-serif" font-weight="700" font-size="13" transform="translate(421.083 512)">m</text><rect x="403.5" y="556.5" width="46" height="8" stroke="#000000" stroke-miterlimit="8" fill="#DBDBE3" fill-opacity="0.2"/><text font-family="Arial,Arial_MSFontService,sans-serif" font-weight="400" font-size="13" transform="matrix(6.12323e-17 1 -1 6.12323e-17 421.61 540)">…</text><path d="M401.5 562.5C399.843 562.5 398.5 562.276 398.5 562L398.5 548C398.5 547.724 397.157 547.5 395.5 547.5 397.157 547.5 398.5 547.276 398.5 547L398.5 533C398.5 532.724 399.843 532.5 401.5 532.5" stroke="#000000" stroke-miterlimit="8" fill="none" fill-rule="evenodd"/><text font-family="Arial,Arial_MSFontService,sans-serif" font-weight="700" font-size="13" transform="translate(384.149 552)">k</text><path d="M404.5 523.5C404.5 521.567 404.761 520 405.083 520L426.417 520C426.739 520 427 518.433 427 516.5 427 518.433 427.261 520 427.583 520L448.917 520C449.239 520 449.5 521.567 449.5 523.5" stroke="#000000" stroke-miterlimit="8" fill="none" fill-rule="evenodd"/><text font-family="Arial,Arial_MSFontService,sans-serif" font-weight="400" font-size="16" transform="translate(488.875 468)">Feature</text><text font-family="Arial,Arial_MSFontService,sans-serif" font-weight="400" font-size="16" transform="translate(480.875 487)">Extraction</text><path d="M450.5 545 476.41 545 476.41 546 450.5 546ZM475.077 541.5 483.077 545.5 475.077 549.5Z"/><rect x="586.5" y="516.5" width="37" height="57" stroke="#000000" stroke-miterlimit="8" fill="#AFDDE9"/><path d="M483.5 506.667C483.5 504.918 484.918 503.5 486.667 503.5L499.333 503.5C501.082 503.5 502.5 504.918 502.5 506.667L502.5 583.333C502.5 585.082 501.082 586.5 499.333 586.5L486.667 586.5C484.918 586.5 483.5 585.082 483.5 583.333Z" stroke="#000000" stroke-miterlimit="8" fill="#FFFFFF" fill-rule="evenodd"/><text font-family="Arial,Arial_MSFontService,sans-serif" font-weight="400" font-size="13" transform="matrix(6.12323e-17 -1 1 6.12323e-17 497.259 569)">Encoder</text><path d="M532.5 506.667C532.5 504.918 533.918 503.5 535.667 503.5L548.333 503.5C550.082 503.5 551.5 504.918 551.5 506.667L551.5 583.333C551.5 585.082 550.082 586.5 548.333 586.5L535.667 586.5C533.918 586.5 532.5 585.082 532.5 583.333Z" stroke="#000000" stroke-miterlimit="8" fill="#FFFFFF" fill-rule="evenodd"/><text font-family="Arial,Arial_MSFontService,sans-serif" font-weight="400" font-size="13" transform="matrix(6.12323e-17 -1 1 6.12323e-17 546.94 570)">Decoder</text><path d="M0.00202121-0.499996 23.5398-0.404846 23.5358 0.595146-0.00202121 0.499996ZM22.2206-3.91021 30.2044 0.1221 22.1883 4.08973Z" transform="matrix(1 0 0 -1 502.5 545.622)"/><path d="M0.00178954-0.499997 27.4498-0.401758 27.4462 0.598236-0.00178954 0.499997ZM26.129-3.90651 34.1146 0.1221 26.1004 4.09344Z" transform="matrix(1 0 0 -1 551.5 545.622)"/><path d="M673.5 507.5C673.5 505.843 674.843 504.5 676.5 504.5L765.5 504.5C767.157 504.5 768.5 505.843 768.5 507.5L768.5 519.5C768.5 521.157 767.157 522.5 765.5 522.5L676.5 522.5C674.843 522.5 673.5 521.157 673.5 519.5Z" stroke="#172C51" stroke-miterlimit="8" fill="#FFFFFF" fill-rule="evenodd"/><text font-family="Arial,Arial_MSFontService,sans-serif" font-weight="400" font-size="13" transform="translate(684.033 518)">Query Layer</text><path d="M673.5 538.667C673.5 536.918 674.918 535.5 676.667 535.5L765.333 535.5C767.082 535.5 768.5 536.918 768.5 538.667L768.5 551.333C768.5 553.082 767.082 554.5 765.333 554.5L676.667 554.5C674.918 554.5 673.5 553.082 673.5 551.333Z" stroke="#172C51" stroke-miterlimit="8" fill="#FFFFFF" fill-rule="evenodd"/><text font-family="Arial,Arial_MSFontService,sans-serif" font-weight="400" font-size="13" transform="translate(690.699 550)">Key Layer</text><path d="M673.5 570.667C673.5 568.918 674.918 567.5 676.667 567.5L765.333 567.5C767.082 567.5 768.5 568.918 768.5 570.667L768.5 583.333C768.5 585.082 767.082 586.5 765.333 586.5L676.667 586.5C674.918 586.5 673.5 585.082 673.5 583.333Z" stroke="#172C51" stroke-miterlimit="8" fill="#FFFFFF" fill-rule="evenodd"/><text font-family="Arial,Arial_MSFontService,sans-serif" font-weight="400" font-size="13" transform="translate(685.199 581)">Value Layer</text><path d="M623.5 545 666.823 545 666.823 546 623.5 546ZM665.49 541.5 673.49 545.5 665.49 549.5Z"/><path d="M623.5 545 648.995 545 648.995 577.195 648.495 576.695 666.823 576.695 666.823 577.695 647.995 577.695 647.995 545.5 648.495 546 623.5 546ZM665.49 573.195 673.49 577.195 665.49 581.195Z"/><path d="M0-0.5 25.4949-0.5 25.4949 31.6949 24.9949 31.1949 43.3231 31.1949 43.3231 32.1949 24.4949 32.1949 24.4949 0 24.9949 0.5 0 0.5ZM41.9898 27.6949 49.9898 31.6949 41.9898 35.6949Z" transform="matrix(1 0 0 -1 623.5 545.195)"/><text font-family="Arial,Arial_MSFontService,sans-serif" font-weight="400" font-size="16" transform="translate(685.557 468)">Self</text><text font-family="Arial,Arial_MSFontService,sans-serif" font-weight="400" font-size="16" transform="translate(713.057 468)">-</text><text font-family="Arial,Arial_MSFontService,sans-serif" font-weight="400" font-size="16" transform="translate(718.39 468)">attention Mechanism</text><text font-family="Arial,Arial_MSFontService,sans-serif" font-weight="700" font-size="13" transform="translate(587.121 508)">k</text><text font-family="DengXian,DengXian_MSFontService,sans-serif" font-weight="700" font-size="13" transform="translate(598.121 508)">×</text><text font-family="Arial,Arial_MSFontService,sans-serif" font-weight="700" font-size="13" transform="translate(611.121 508)">32</text><rect x="807.5" y="501.5" width="57" height="56" stroke="#000000" stroke-miterlimit="8" fill="#FFF6D5"/><path d="M0-0.5 20.1589-0.5 20.1589 15.6775 19.6589 15.1775 32.6512 15.1775 32.6512 16.1775 19.1589 16.1775 19.1589 0 19.6589 0.5 0 0.5ZM31.3179 11.6775 39.3179 15.6775 31.3179 19.6775Z" transform="matrix(1 0 0 -1 768.5 545.178)"/><path d="M768.5 513 788.659 513 788.659 529.517 788.159 529.017 801.151 529.017 801.151 530.017 787.659 530.017 787.659 513.5 788.159 514 768.5 514ZM799.818 525.517 807.818 529.517 799.818 533.517Z"/><rect x="886.5" y="500.5" width="7" height="57" stroke="#000000" stroke-miterlimit="8" fill="#FFEEAA"/><path d="M0.00389919-0.499985 15.1328-0.382 15.125 0.617969-0.00389919 0.499985ZM13.8268-3.89229 21.7954 0.169974 13.7644 4.10746Z" transform="matrix(1 0 0 -1 864.5 529.67)"/><rect x="934.5" y="516.5" width="23" height="57" stroke="#000000" stroke-miterlimit="8" fill="#FFB380"/><path d="M893.5 529 909.289 529 909.289 545.47 908.789 544.97 928.079 544.97 928.079 545.97 908.289 545.97 908.289 529.5 908.789 530 893.5 530ZM926.746 541.47 934.746 545.47 926.746 549.47Z"/><path d="M0-0.5 141.14-0.5 141.14 31.5728 140.64 31.0728 159.944 31.0728 159.944 32.0728 140.14 32.0728 140.14 0 140.64 0.5 0 0.5ZM158.611 27.5728 166.611 31.5728 158.611 35.5728Z" transform="matrix(1 0 0 -1 768.5 577.073)"/><path d="M1017.5 506.667C1017.5 504.918 1018.92 503.5 1020.67 503.5L1033.33 503.5C1035.08 503.5 1036.5 504.918 1036.5 506.667L1036.5 583.333C1036.5 585.082 1035.08 586.5 1033.33 586.5L1020.67 586.5C1018.92 586.5 1017.5 585.082 1017.5 583.333Z" stroke="#000000" stroke-miterlimit="8" fill="#FFFFFF" fill-rule="evenodd"/><text font-family="Arial,Arial_MSFontService,sans-serif" font-weight="400" font-size="13" transform="matrix(6.12323e-17 -1 1 6.12323e-17 1031.13 572)">Classifier</text><text font-family="Arial,Arial_MSFontService,sans-serif" font-weight="400" font-size="16" transform="translate(992.565 465)">Bag</text><text font-family="Arial,Arial_MSFontService,sans-serif" font-weight="400" font-size="16" transform="translate(1020.9 465)">-</text><text font-family="Arial,Arial_MSFontService,sans-serif" font-weight="400" font-size="16" transform="translate(1026.23 465)">level</text><text font-family="Arial,Arial_MSFontService,sans-serif" font-weight="400" font-size="16" transform="translate(992.978 484)">Classifier</text><path d="M957.5 545 1010.45 545 1010.45 546 957.5 546ZM1009.12 541.5 1017.12 545.5 1009.12 549.5Z"/><rect x="1104.5" y="535.5" width="19" height="19" stroke="#000000" stroke-miterlimit="8" fill="#AADE7D"/><path d="M0.000890038-0.499999 61.9265-0.389767 61.9248 0.610232-0.000890038 0.499999ZM60.5995-3.89213 68.5923 0.1221 60.5852 4.10785Z" transform="matrix(1 0 0 -1 1036.5 545.622)"/><text font-family="Arial,Arial_MSFontService,sans-serif" font-weight="700" font-size="13" transform="translate(819.426 492)">k</text><text font-family="DengXian,DengXian_MSFontService,sans-serif" font-weight="700" font-size="13" transform="translate(830.426 492)">×</text><text font-family="Arial,Arial_MSFontService,sans-serif" font-weight="700" font-size="13" transform="translate(843.426 492)">k</text><text font-family="Arial,Arial_MSFontService,sans-serif" font-weight="700" font-size="13" transform="translate(874.116 492)">k</text><text font-family="DengXian,DengXian_MSFontService,sans-serif" font-weight="700" font-size="13" transform="translate(885.116 492)">×</text><text font-family="Arial,Arial_MSFontService,sans-serif" font-weight="700" font-size="13" transform="translate(898.116 492)">1</text><text font-family="Arial,Arial_MSFontService,sans-serif" font-weight="700" font-size="13" transform="translate(925.335 508)">k</text><text font-family="DengXian,DengXian_MSFontService,sans-serif" font-weight="700" font-size="13" transform="translate(936.335 508)">×</text><text font-family="Arial,Arial_MSFontService,sans-serif" font-weight="700" font-size="13" transform="translate(949.335 508)">16</text><text font-family="Arial,Arial_MSFontService,sans-serif" font-weight="700" font-size="13" transform="translate(1096.27 527)">1</text><text font-family="DengXian,DengXian_MSFontService,sans-serif" font-weight="700" font-size="13" transform="translate(1107.27 527)">×</text><text font-family="Arial,Arial_MSFontService,sans-serif" font-weight="700" font-size="13" transform="translate(1120.27 527)">1</text><text font-family="DengXian,DengXian_MSFontService,sans-serif" font-weight="400" font-size="24" transform="translate(137.159 549)">…</text><text font-family="DengXian,DengXian_MSFontService,sans-serif" font-weight="400" font-size="24" transform="translate(137.159 616)">…</text><text font-family="Arial,Arial_MSFontService,sans-serif" font-weight="400" font-size="13" transform="translate(52.4159 616)">Subgroup 1</text><text font-family="Arial,Arial_MSFontService,sans-serif" font-weight="400" font-size="13" transform="translate(168.699 616)">Subgroup T</text><rect x="65.5001" y="572.5" width="45" height="19" stroke="#172C51" stroke-width="1.33333" stroke-miterlimit="8" fill="#F8F8F9"/><text font-family="Arial,Arial_MSFontService,sans-serif" font-weight="400" font-size="13" transform="translate(80.3441 587)">X</text><text font-family="Arial,Arial_MSFontService,sans-serif" font-weight="400" font-size="9" transform="translate(89.1774 589)">1</text><rect x="181.5" y="572.5" width="45" height="19" stroke="#172C51" stroke-width="1.33333" stroke-miterlimit="8" fill="#F8F8F9"/><text font-family="Arial,Arial_MSFontService,sans-serif" font-weight="400" font-size="13" transform="translate(196.178 586)">X</text><text font-family="Arial,Arial_MSFontService,sans-serif" font-weight="400" font-size="9" transform="translate(205.011 588)">T</text><path d="M53.5001 450.834C53.5001 444.574 58.5743 439.5 64.8336 439.5L110.166 439.5C116.426 439.5 121.5 444.574 121.5 450.834L121.5 542.167C121.5 548.426 116.426 553.5 110.166 553.5L64.8336 553.5C58.5743 553.5 53.5001 548.426 53.5001 542.167Z" stroke="#172C51" stroke-width="1.33333" stroke-miterlimit="8" fill="#4164C7" fill-rule="evenodd" fill-opacity="0"/><text font-family="Arial,Arial_MSFontService,sans-serif" font-weight="400" font-size="13" transform="translate(66.816 501)">Task 1</text><path d="M169.5 450.834C169.5 444.574 174.574 439.5 180.834 439.5L226.166 439.5C232.426 439.5 237.5 444.574 237.5 450.834L237.5 542.167C237.5 548.426 232.426 553.5 226.166 553.5L180.834 553.5C174.574 553.5 169.5 548.426 169.5 542.167Z" stroke="#172C51" stroke-width="1.33333" stroke-miterlimit="8" fill="#4164C7" fill-rule="evenodd" fill-opacity="0"/><text font-family="Arial,Arial_MSFontService,sans-serif" font-weight="400" font-size="13" transform="translate(183.011 501)">Task T</text><path d="M87.5283 573.263 87.1784 560.178 88.1781 560.151 88.528 573.237ZM83.7153 561.604 87.5001 553.5 91.7125 561.39Z"/><path d="M0.5-2.72716e-06 0.500069 12.5817-0.499931 12.5817-0.5 2.72716e-06ZM4.00006 11.2484 0.000104987 19.2484-3.99994 11.2484Z" transform="matrix(1 0 0 -1 203.5 572.748)"/><path d="M128.167 496 163.414 496 163.414 497 128.167 497ZM129.5 500.5 121.5 496.5 129.5 492.5ZM162.081 492.5 170.081 496.5 162.081 500.5Z"/><text font-family="DengXian,DengXian_MSFontService,sans-serif" font-weight="400" font-size="24" transform="translate(136.826 587)">…</text><rect x="77.5001" y="401.5" width="19" height="19" stroke="#000000" stroke-miterlimit="8" fill="#AADE7D"/><path d="M0.5-2.65789e-06 0.50007 13.0834-0.49993 13.0834-0.5 2.65789e-06ZM4.00006 11.75 0.000104987 19.75-3.99994 11.75Z" transform="matrix(1 0 0 -1 87.5001 440.25)"/><rect x="194.5" y="401.5" width="19" height="19" stroke="#000000" stroke-miterlimit="8" fill="#AADE7D"/><path d="M0.5-2.65789e-06 0.50007 13.0834-0.49993 13.0834-0.5 2.65789e-06ZM4.00006 11.75 0.000104987 19.75-3.99994 11.75Z" transform="matrix(1 0 0 -1 203.5 440.25)"/><text font-family="Arial,Arial_MSFontService,sans-serif" font-weight="400" font-size="13" transform="translate(79.816 415)">Y</text><text font-family="Arial,Arial_MSFontService,sans-serif" font-weight="400" font-size="9" transform="translate(88.6493 417)">1</text><text font-family="Arial,Arial_MSFontService,sans-serif" font-weight="400" font-size="13" transform="translate(196.178 414)">Y</text><text font-family="Arial,Arial_MSFontService,sans-serif" font-weight="400" font-size="9" transform="translate(205.011 416)">T</text><text font-family="DengXian,DengXian_MSFontService,sans-serif" font-weight="400" font-size="24" transform="translate(132.846 426)">…</text><path d="M244.5 492.5 296.5 492.5 296.5 488.5 304.5 496.5 296.5 504.5 296.5 500.5 244.5 500.5Z" stroke="#172C51" stroke-miterlimit="8" fill="#FFFFFF" fill-rule="evenodd"/><text font-family="Arial,Arial_MSFontService,sans-serif" font-weight="700" font-size="19" transform="translate(620.382 402)">Subgroup</text><text font-family="Arial,Arial_MSFontService,sans-serif" font-weight="700" font-size="19" transform="translate(708.215 402)">-</text><text font-family="Arial,Arial_MSFontService,sans-serif" font-weight="700" font-size="19" transform="translate(714.382 402)">specific Model</text><text font-family="Arial,Arial_MSFontService,sans-serif" font-weight="400" font-size="16" transform="translate(332.496 522)">Input</text><text font-family="Arial,Arial_MSFontService,sans-serif" font-weight="400" font-size="16" transform="translate(322.75 541)">Feature</text></g></svg>